# Exported from ProBuilder
# http://www.procore3d.com/probuilder
# 03/20/2018 17:23:32

mtllib ./fighter-effect.mtl
o fighter-effect

g fighter-effect
v 0.271777 0.208212 0.983298
v 0.355629 0.23068 0.983298
v 0.320708 0.0256 1.055505
v 0.40456 0.048068 1.055505
v -0.271777 0.208212 0.983298
v -0.40456 0.048068 1.055505
v -0.355629 0.23068 0.983298
v -0.320708 0.0256 1.055505
v 0.446009 0.14391 -0.691537
v 0.4572 -0.09891099 -0.691537
v 0.542654 -0.032761 -0.691537
v 0.267487 -0.002652 -0.691537
v 0.446009 0.14391 -0.691537
v 0.256572 0.010028 -0.691537
v 0.267487 -0.002652 -0.691537
v 0.43589 0.157726 -0.691537
v 0.256572 0.010028 -0.691537
v 0.43589 0.157726 -0.691537
v 0.212793 0.218907 -0.691537
v 0.294452 0.293909 -0.691537
v 0.30239 -0.08042499 -0.052732
v 0.160609 -0.112322 -0.052732
v 0.178054 -0.05191199 -0.052732
v 0.254884 -0.213997 -0.052732
v 0.254884 -0.213997 -0.052732
v 0.30239 -0.08042499 -0.052732
v 0.392872 -0.204114 -0.052732
v 0.415434 -0.146535 -0.052732
v 0.162262 -0.062925 -0.619696
v 0.135328 -0.132254 -0.619696
v 0.244543 -0.081252 -0.619696
v 0.141806 -0.176572 -0.619667
v 0.244543 -0.081252 -0.619696
v 0.135328 -0.132254 -0.619696
v 0.195886 -0.206158 -0.619667
v 0.244543 -0.081252 -0.619696
v 0.141806 -0.176572 -0.619667
v 0.27881 -0.1095 -0.619696
v 0.11712 -0.096519 -0.619696
v 0.129244 -0.065313 -0.619696
v 0.11712 -0.096519 -0.619696
v 0.162262 -0.062925 -0.619696
v 0.147387 -0.141555 0.74806
v 0.241596 -0.059731 0.801452
v 0.182613 -0.161892 0.74806
v 0.20637 -0.039394 0.801452
v -0.267487 -0.002652 -0.691537
v -0.542654 -0.032761 -0.691537
v -0.4572 -0.09891099 -0.691537
v -0.446009 0.14391 -0.691537
v -0.446009 0.14391 -0.691537
v -0.267487 -0.002652 -0.691537
v -0.43589 0.157726 -0.691537
v -0.256572 0.010028 -0.691537
v -0.256572 0.010028 -0.691537
v -0.294452 0.293909 -0.691537
v -0.43589 0.157726 -0.691537
v -0.212793 0.218907 -0.691537
v -0.254884 -0.213997 -0.052732
v -0.178054 -0.05191199 -0.052732
v -0.160609 -0.112322 -0.052732
v -0.30239 -0.08042499 -0.052732
v -0.254884 -0.213997 -0.052732
v -0.415434 -0.146535 -0.052732
v -0.30239 -0.08042499 -0.052732
v -0.392872 -0.204114 -0.052732
v -0.162262 -0.062925 -0.619696
v -0.244543 -0.081252 -0.619696
v -0.135328 -0.132254 -0.619696
v -0.195886 -0.206158 -0.619667
v -0.141806 -0.176572 -0.619667
v -0.135328 -0.132254 -0.619696
v -0.195886 -0.206158 -0.619667
v -0.195886 -0.206158 -0.619667
v -0.244543 -0.081252 -0.619696
v -0.241195 -0.20295 -0.619667
v -0.27881 -0.1095 -0.619696
v -0.162262 -0.062925 -0.619696
v -0.135328 -0.132254 -0.619696
v -0.129244 -0.065313 -0.619696
v -0.11712 -0.096519 -0.619696
v -0.20637 -0.039394 0.801452
v -0.182613 -0.161892 0.74806
v -0.241596 -0.059731 0.801452
v -0.147387 -0.141555 0.74806

vn -0.09234631 0.3446423 0.9341808
vn -0.09234633 0.3446423 0.9341808
vn -0.0923463 0.3446423 0.9341808
vn -0.09234631 0.3446423 0.9341808
vn 0.09234631 0.3446423 0.9341808
vn 0.09234631 0.3446423 0.9341808
vn 0.0923463 0.3446423 0.9341808
vn 0.09234632 0.3446423 0.9341808
vn 0 0 -1
vn 0 0 -1
vn 0 0 -0.9999999
vn 0 0 -1
vn 0 0 -1
vn 0 0 -1
vn 0 0 -1
vn 0 0 -1
vn 0 0 -1
vn 0 0 -1
vn 0 0 -1
vn 0 0 -1
vn 0 0 1
vn 0 0 1
vn 0 0 1
vn 0 0 1
vn 0 0 1
vn 0 0 1
vn 0 0 1
vn 0 0 1
vn 0 0 -1
vn 0.0001431617 -0.0003065645 -0.9999998
vn 5.503478E-05 -0.0002661009 -0.9999999
vn 9.076017E-05 -0.0004023488 -0.9999999
vn 5.503478E-05 -0.0002661009 -0.9999999
vn 0.0001431617 -0.0003065645 -0.9999998
vn -0.000121219 -0.0001851737 -1
vn 5.503478E-05 -0.0002661009 -0.9999999
vn 9.076017E-05 -0.0004023488 -0.9999999
vn -0.0001450086 -0.0001759066 -1
vn 0 0 -1
vn 0 0 -1
vn 0 0 -1
vn 0 0 -1
vn -0.2061637 -0.357099 0.9110307
vn -0.2061637 -0.357099 0.9110307
vn -0.2061637 -0.357099 0.9110307
vn -0.2061637 -0.357099 0.9110307
vn 0 0 -1
vn 0 0 -1
vn 0 0 -1
vn 0 0 -1
vn 0 0 -1
vn 0 0 -1
vn 0 0 -1
vn 0 0 -1
vn 0 0 -1
vn 0 0 -1
vn 0 0 -1
vn 0 0 -1
vn 0 0 1
vn 0 0 1
vn 0 0 0.9999999
vn 0 0 1
vn 0 0 1
vn 0 0 0.9999999
vn 0 0 1
vn 0 0 0.9999999
vn -4.264465E-05 -9.131867E-05 -1
vn 9.631931E-05 -0.0001948734 -1
vn 2.143465E-05 -0.0002794122 -0.9999999
vn 0.0001261974 -0.0003770071 -0.9999999
vn 0.000389471 -0.0007119107 -0.9999997
vn 2.143465E-05 -0.0002794122 -0.9999999
vn 0.0001261974 -0.0003770071 -0.9999999
vn 0.0001261974 -0.0003770071 -0.9999999
vn 9.631931E-05 -0.0001948734 -1
vn -2.263789E-05 -0.0003197323 -0.9999999
vn 7.441056E-05 -0.0002364733 -1
vn -4.264465E-05 -9.131867E-05 -1
vn 2.143465E-05 -0.0002794122 -0.9999999
vn 0 0 -1
vn 0 0 -1
vn 0.2061637 -0.357099 0.9110307
vn 0.2061637 -0.357099 0.9110307
vn 0.2061637 -0.357099 0.9110307
vn 0.2061637 -0.357099 0.9110307

vt 0.4549758 0.371232
vt 0.4832938 0.371232
vt 0.4549948 0.3093328
vt 0.4833128 0.3093328
vt 0.4549758 0.371232
vt 0.4833128 0.3093328
vt 0.4832938 0.371232
vt 0.4549948 0.3093328
vt 0.4849705 0.3431318
vt 0.4644995 0.3704114
vt 0.4796648 0.3708897
vt 0.4525448 0.3430407
vt 0.4849705 0.3431318
vt 0.4524995 0.3406954
vt 0.4525448 0.3430407
vt 0.485107 0.3407181
vt 0.4524995 0.3406954
vt 0.485107 0.3407181
vt 0.4663897 0.3141679
vt 0.4819417 0.3133479
vt 0.4863949 0.3451016
vt 0.4678113 0.3740797
vt 0.4826703 0.3750879
vt 0.4528072 0.3448598
vt 0.4528072 0.3448598
vt 0.4863949 0.3451016
vt 0.4661839 0.3149474
vt 0.4808289 0.3145855
vt 0.4780312 0.3482527
vt 0.4785579 0.3350438
vt 0.4631116 0.349906
vt 0.4748997 0.3279688
vt 0.4631116 0.349906
vt 0.4785579 0.3350438
vt 0.4621277 0.3280507
vt 0.4631116 0.349906
vt 0.4748997 0.3279688
vt 0.4557019 0.3471293
vt 0.4836955 0.340006
vt 0.4834576 0.3459546
vt 0.4836955 0.340006
vt 0.4780312 0.3482527
vt 0.4830724 0.3744737
vt 0.4559668 0.3094858
vt 0.4558202 0.3744737
vt 0.4833145 0.3094858
vt 0.4525448 0.3430407
vt 0.4796648 0.3708897
vt 0.4644995 0.3704114
vt 0.4849705 0.3431318
vt 0.4849705 0.3431318
vt 0.4525448 0.3430407
vt 0.485107 0.3407181
vt 0.4524995 0.3406954
vt 0.4524995 0.3406954
vt 0.4819417 0.3133479
vt 0.485107 0.3407181
vt 0.4663897 0.3141679
vt 0.4528072 0.3448598
vt 0.4826703 0.3750879
vt 0.4678113 0.3740797
vt 0.4863949 0.3451016
vt 0.4528072 0.3448598
vt 0.4808289 0.3145855
vt 0.4863949 0.3451016
vt 0.4661839 0.3149474
vt 0.4780312 0.3482527
vt 0.4631116 0.349906
vt 0.4785579 0.3350438
vt 0.4621277 0.3280507
vt 0.4748997 0.3279688
vt 0.4785579 0.3350438
vt 0.4621277 0.3280507
vt 0.4621277 0.3280507
vt 0.4631116 0.349906
vt 0.4566272 0.3292465
vt 0.4557019 0.3471293
vt 0.4780312 0.3482527
vt 0.4785579 0.3350438
vt 0.4834576 0.3459546
vt 0.4836955 0.340006
vt 0.4833145 0.3094858
vt 0.4558202 0.3744737
vt 0.4559668 0.3094858
vt 0.4830724 0.3744737

g fighter-effect_0
usemtl fighter
f 3/3/3 4/4/4 2/2/2 1/1/1
f 8/8/8 5/5/5 7/7/7 6/6/6
f 12/12/12 9/9/9 11/11/11 10/10/10
f 16/16/16 13/13/13 15/15/15 14/14/14
f 19/19/19 20/20/20 18/18/18 17/17/17
f 24/24/24 21/21/21 23/23/23 22/22/22
f 27/27/27 28/28/28 26/26/26 25/25/25
f 39/39/39 29/29/29 31/31/31 30/30/30
f 38/38/38 35/35/35 37/37/37 36/36/36
f 46/46/46 43/43/43 45/45/45 44/44/44
f 50/50/50 47/47/47 49/49/49 48/48/48
f 53/53/53 54/54/54 52/52/52 51/51/51
f 58/58/58 55/55/55 57/57/57 56/56/56
f 62/62/62 59/59/59 61/61/61 60/60/60
f 66/66/66 63/63/63 65/65/65 64/64/64
f 69/69/69 70/70/70 68/68/68 67/67/67
f 76/76/76 77/77/77 75/75/75 74/74/74
f 80/80/80 81/81/81 79/79/79 78/78/78
f 85/85/85 82/82/82 84/84/84 83/83/83
f 34/34/34 33/33/33 32/32/32
f 42/42/42 41/41/41 40/40/40
f 73/73/73 72/72/72 71/71/71

